<?xml version="1.0" encoding="utf-8"?>
<!-- Generator: Adobe Illustrator 24.1.0, SVG Export Plug-In . SVG Version: 6.00 Build 0)  -->
<svg version="1.1" xmlns="http://www.w3.org/2000/svg" xmlns:xlink="http://www.w3.org/1999/xlink" x="0px" y="0px"
	 viewBox="0 0 100 100" style="enable-background:new 0 0 100 100;" xml:space="preserve">
<g id="Layer_2">
</g>
<g id="Layer_1">
	<g>
		<g>
			<path d="M67.8,34.7c-1.3-6.7-7.3-12.2-14.6-13.3c-5.4-0.9-10.8,0.4-14.9,3.6c-4.1,3.2-6.5,7.8-6.5,12.7c0,2.3,2.1,4.1,4.5,4.1
				c2.5,0,4.5-1.8,4.5-4.1c0-2.4,1.2-4.7,3.2-6.3c2.1-1.6,4.7-2.2,7.5-1.8c3.5,0.5,6.6,3.3,7.2,6.6c0.9,4.7-2.4,8.3-6.1,9.4
				c-4.4,1.3-7.3,5.1-7.3,9.4v5.3c0,2.3,2.1,4.1,4.5,4.1c2.5,0,4.5-1.8,4.5-4.1v-5.3c0-0.7,0.5-1.3,1.1-1.5
				C64.3,50.8,69.4,43,67.8,34.7z"/>
			<path d="M50,68.4c-3.2,0-5.7,2.4-5.7,5.2c0,2.9,2.6,5.2,5.7,5.2c3.2,0,5.7-2.4,5.7-5.2C55.8,70.8,53.2,68.4,50,68.4z"/>
		</g>
	</g>
</g>
</svg>
