<?xml version="1.0" encoding="utf-8"?>
<!-- Generator: Adobe Illustrator 24.1.0, SVG Export Plug-In . SVG Version: 6.00 Build 0)  -->
<svg version="1.1" id="Capa_1" xmlns="http://www.w3.org/2000/svg" xmlns:xlink="http://www.w3.org/1999/xlink" x="0px" y="0px"
	 viewBox="0 0 533.3 533.3" style="enable-background:new 0 0 533.3 533.3;" xml:space="preserve">
<style type="text/css">
	.st0{fill:#54A6BA;}
</style>
<g>
	<path class="st0" d="M444.4,0H88.9C40,0,0,40,0,88.9v355.5c0,48.9,40,88.9,88.9,88.9h355.5c48.9,0,88.9-40,88.9-88.9V88.9
		C533.3,40,493.3,0,444.4,0z M436.5,178c0.2,3.8,0.3,7.7,0.3,11.5c0,117.8-88.1,253.7-249.3,253.7c-49.5,0-95.5-14.8-134.3-40.1
		C60,404,67,404.4,74,404.4c41.1,0,78.8-14.3,108.8-38.2c-38.3-0.7-70.7-26.5-81.9-61.9c5.4,1,10.8,1.6,16.5,1.6
		c8,0,15.7-1.1,23.1-3.1c-40.1-8.2-70.3-44.2-70.3-87.4c0-0.4,0-0.8,0-1.1C82.1,221,95.6,225,110,225.4c-23.5-16-39-43.3-39-74.2
		c0-16.3,4.3-31.7,11.9-44.8c43.2,53.9,107.8,89.4,180.6,93.2c-1.5-6.5-2.3-13.3-2.3-20.3c0-49.2,39.2-89.2,87.6-89.2
		c25.2,0,48,10.8,64,28.2c20-4,38.7-11.4,55.6-21.6c-6.5,20.8-20.4,38.3-38.5,49.3c17.7-2.2,34.6-6.9,50.3-14
		C468.5,149.8,453.6,165.5,436.5,178z"/>
</g>
</svg>
